<?xml version="1.0" standalone="no"?>
<!DOCTYPE svg PUBLIC "-//W3C//DTD SVG 20010904//EN"
 "http://www.w3.org/TR/2001/REC-SVG-20010904/DTD/svg10.dtd">
<svg version="1.0" xmlns="http://www.w3.org/2000/svg"
 width="500.000000pt" height="500.000000pt" viewBox="0 0 500.000000 500.000000"
 preserveAspectRatio="xMidYMid meet">
<metadata>
Created by potrace 1.14, written by Peter Selinger 2001-2017
</metadata>
<g transform="translate(0.000000,500.000000) scale(0.100000,-0.100000)"
fill="#000000" stroke="none">
<path d="M402 3910 c-18 -11 -41 -34 -52 -52 -20 -33 -20 -54 -20 -1430 0
-1385 0 -1398 20 -1418 l20 -20 -185 0 -185 0 0 -135 0 -135 2500 0 2500 0 0
135 0 135 -185 0 -185 0 20 20 c20 20 20 33 20 1418 0 1376 0 1397 -20 1430
-11 18 -34 41 -52 52 -33 20 -55 20 -2098 20 -2043 0 -2065 0 -2098 -20z
m1382 -26 c9 -8 16 -19 16 -24 0 -13 -30 -40 -44 -40 -17 0 -36 21 -36 40 0
19 19 40 36 40 7 0 20 -7 28 -16z m2744 -1421 l-3 -1328 -2025 0 -2025 0 -3
1328 -2 1327 2030 0 2030 0 -2 -1327z m-1368 -1480 c0 -3 -7 -15 -17 -25 -15
-17 -48 -18 -644 -18 -557 0 -629 2 -643 16 -9 8 -16 20 -16 25 0 5 261 9 660
9 363 0 660 -3 660 -7z m1394 -89 c41 -40 -7 -109 -59 -86 -14 6 -27 23 -31
37 -13 50 53 86 90 49z m178 -1 c26 -24 23 -59 -8 -80 -24 -15 -29 -15 -53 -2
-32 18 -39 54 -15 80 21 23 51 24 76 2z m178 -3 c11 -11 20 -27 20 -35 0 -18
-35 -55 -53 -55 -27 0 -57 31 -57 60 0 48 54 66 90 30z m-4509 -21 c42 -22 3
-29 -156 -29 -159 0 -200 8 -164 31 20 12 296 11 320 -2z"/>
<path d="M1233 3740 l-23 -9 0 -1279 c0 -981 3 -1281 12 -1290 17 -17 2079
-17 2096 0 9 9 12 154 12 589 l0 577 161 443 c89 244 164 447 168 452 4 4 15
1 24 -5 15 -12 9 -34 -68 -246 -47 -128 -85 -243 -85 -257 0 -18 7 -26 26 -31
14 -4 29 -3 34 2 13 13 200 531 200 553 0 23 -15 35 -62 50 -21 7 -38 15 -38
17 0 3 5 25 11 49 8 32 8 53 0 77 -10 29 -7 45 19 117 35 95 33 125 -7 165
-20 20 -36 26 -68 26 -61 0 -87 -25 -120 -116 -21 -57 -40 -88 -70 -118 -34
-33 -49 -61 -81 -150 l-39 -108 -3 241 -2 242 -26 9 c-33 13 -2040 12 -2071 0z
m2017 -402 l0 -323 -72 -202 -73 -203 -429 -2 c-396 -3 -430 -4 -440 -20 -8
-13 -8 -23 0 -35 10 -17 43 -18 423 -21 226 -1 411 -6 411 -10 0 -4 -13 -41
-28 -82 l-28 -75 -389 -5 -390 -5 -3 -27 c-3 -22 2 -30 23 -38 16 -6 167 -10
376 -10 192 0 349 -2 349 -5 0 -2 -25 -72 -55 -156 -34 -94 -53 -160 -49 -174
4 -16 -5 -34 -37 -71 l-42 -49 -281 -5 -281 -5 -3 -27 c-3 -22 2 -30 23 -38
15 -6 140 -10 294 -10 l269 0 6 -31 c3 -17 6 -53 6 -80 l0 -49 -291 -2 c-265
-3 -293 -5 -303 -20 -8 -13 -8 -23 0 -35 10 -16 38 -18 305 -21 175 -1 297 -6
303 -12 6 -6 15 -10 22 -10 6 0 68 56 137 124 l126 125 -6 51 c-5 47 -4 54 19
73 17 15 38 58 63 130 21 59 39 107 41 107 2 0 4 -193 4 -430 l0 -430 -980 0
-980 0 0 1215 0 1215 980 0 980 0 0 -322z m410 300 c0 -40 -32 -109 -47 -103
-8 3 -19 5 -23 5 -9 0 9 62 30 99 14 28 40 27 40 -1z m-77 -179 c36 -16 50
-54 37 -95 l-11 -33 -67 25 c-36 13 -68 26 -70 28 -8 9 31 68 51 76 30 12 32
12 60 -1z m-65 -180 c34 -11 62 -23 62 -25 0 -4 -472 -1306 -475 -1311 -4 -7
-127 41 -131 51 -3 9 296 849 461 1294 6 16 11 16 83 -9z m-510 -1394 l39 -16
-4 -57 c-4 -55 -6 -59 -66 -115 l-62 -58 -11 83 -11 83 35 48 c20 26 37 47 39
47 1 0 20 -7 41 -15z"/>
<path d="M1451 3496 c-8 -9 -11 -90 -9 -272 l3 -259 259 -3 c182 -2 263 1 272
9 11 9 14 61 14 260 0 212 -2 250 -16 263 -13 14 -51 16 -263 16 -199 0 -251
-3 -260 -14z m459 -261 l0 -195 -195 0 -195 0 0 195 0 195 195 0 195 0 0 -195z"/>
<path d="M2237 3383 c-17 -17 -6 -54 19 -63 15 -6 191 -10 430 -10 392 0 405
1 424 20 16 16 18 25 10 40 -10 19 -23 20 -444 20 -238 0 -436 -3 -439 -7z"/>
<path d="M2242 3138 c-7 -7 -12 -19 -12 -28 0 -39 11 -40 441 -40 230 0 424 3
433 6 9 4 16 18 16 34 0 16 -7 30 -16 34 -9 3 -203 6 -433 6 -311 0 -420 -3
-429 -12z"/>
<path d="M1447 2713 c-13 -12 -8 -518 5 -531 9 -9 80 -12 259 -12 212 0 250 2
263 16 14 13 16 51 16 263 0 179 -3 250 -12 259 -13 13 -519 18 -531 5z m463
-268 l0 -195 -195 0 -195 0 0 195 0 195 195 0 195 0 0 -195z"/>
<path d="M1451 1926 c-8 -9 -11 -90 -9 -272 l3 -259 259 -3 c182 -2 263 1 272
9 11 9 14 61 14 260 0 212 -2 250 -16 263 -13 14 -51 16 -263 16 -199 0 -251
-3 -260 -14z m459 -261 l0 -195 -195 0 -195 0 0 195 0 195 195 0 195 0 0 -195z"/>
<path d="M2027 560 c-22 -18 -27 -29 -27 -65 0 -49 24 -75 71 -75 15 0 32 -7
39 -15 14 -17 40 -20 40 -5 0 5 -7 13 -16 18 -16 9 -16 11 0 33 52 75 -36 165
-107 109z m81 -22 c26 -26 4 -98 -29 -98 -29 0 -49 22 -49 53 0 38 15 57 45
57 12 0 26 -5 33 -12z"/>
<path d="M2302 571 c2 -7 7 -12 11 -12 12 1 9 15 -3 20 -7 2 -11 -2 -8 -8z"/>
<path d="M2497 574 c-4 -4 -7 -40 -7 -81 l0 -73 45 0 c25 0 45 5 45 10 0 6
-13 10 -30 10 -25 0 -30 4 -30 25 0 21 5 25 30 25 17 0 30 5 30 10 0 6 -13 10
-30 10 -23 0 -30 4 -30 20 0 16 7 20 31 20 43 0 32 24 -12 28 -19 2 -38 0 -42
-4z"/>
<path d="M2172 478 l3 -53 43 -1 42 -1 0 54 c0 29 -4 53 -10 53 -5 0 -10 -13
-10 -28 0 -34 -23 -68 -38 -58 -7 4 -12 25 -12 47 0 21 -5 39 -11 39 -6 0 -9
-21 -7 -52z"/>
<path d="M2300 474 c0 -73 24 -70 28 4 2 42 0 52 -12 52 -13 0 -16 -12 -16
-56z"/>
<path d="M2370 520 c0 -5 12 -10 26 -10 l26 0 -26 -31 c-38 -44 -34 -59 14
-59 22 0 40 5 40 10 0 6 -12 10 -26 10 l-25 0 30 37 c16 20 28 40 25 45 -7 12
-84 10 -84 -2z"/>
<path d="M2610 523 c0 -5 7 -16 15 -27 12 -16 12 -22 -2 -42 -20 -31 -7 -46
15 -18 l17 21 16 -21 c23 -28 36 -13 16 18 -14 20 -14 26 -2 42 18 24 19 34 1
34 -8 0 -17 -8 -21 -17 -6 -17 -7 -17 -19 0 -13 17 -36 24 -36 10z"/>
<path d="M2735 520 c-4 -6 7 -10 24 -10 39 0 40 -16 2 -23 -30 -6 -44 -27 -35
-52 4 -10 19 -14 50 -13 44 2 44 3 44 39 0 57 -8 69 -45 69 -19 0 -37 -4 -40
-10z m53 -62 c-7 -19 -38 -22 -38 -4 0 10 9 16 21 16 12 0 19 -5 17 -12z"/>
<path d="M2850 473 c0 -29 5 -53 10 -53 6 0 10 13 10 29 0 39 9 61 26 61 10 0
14 -13 14 -46 0 -59 24 -55 28 4 4 57 30 57 34 0 4 -58 28 -63 28 -6 0 24 -4
48 -8 54 -4 7 -34 12 -74 11 l-68 0 0 -54z"/>
</g>
</svg>
